<svg xmlns="http://www.w3.org/2000/svg" xmlns:xlink="http://www.w3.org/1999/xlink" viewBox="0,0,256,256" width="25px" height="25px" fill-rule="nonzero"><g fill="#909090" fill-rule="nonzero" stroke="none" stroke-width="1" stroke-linecap="butt" stroke-linejoin="miter" stroke-miterlimit="10" stroke-dasharray="" stroke-dashoffset="0" font-family="none" font-weight="none" font-size="none" text-anchor="none" style="mix-blend-mode: normal"><g transform="scale(10.66667,10.66667)"><path d="M4,12c0,3.2 1.8,5.9 4.5,7.2l-3.8,-10.5c-0.5,1 -0.7,2.1 -0.7,3.3z"></path><path d="M17.4,11c0,-0.8 -0.4,-1.1 -0.7,-1.6c-0.4,-0.7 -0.7,-1.2 -0.7,-1.9c0,-0.7 0.6,-1.4 1.3,-1.4h0.1c-1.4,-1.3 -3.3,-2.1 -5.4,-2.1c-2.8,0 -5.3,1.4 -6.7,3.6c0.2,0 0.4,0 0.5,0c0.9,0 2.2,-0.1 2.2,-0.1c0.4,0 0.5,0.6 0.1,0.7c0,0 -0.4,0.1 -0.9,0.1l2.7,7.9l1.8,-5.3l-1,-2.7c-0.4,0 -0.8,-0.1 -0.8,-0.1c-0.4,0 -0.4,-0.7 0.1,-0.7c0,0 1.3,0.1 2.1,0.1c0.8,0 2.1,-0.1 2.1,-0.1c0.4,0 0.5,0.6 0.1,0.7c0,0 -0.4,0.1 -0.9,0.1l2.9,8l0.8,-2.7c0,-1 0.3,-1.8 0.3,-2.5z"></path><path d="M12.1,12.7l-2.4,7c0.7,0.2 1.5,0.3 2.3,0.3c0.9,0 1.8,-0.2 2.7,-0.5c0,0 0,-0.1 -0.1,-0.1z"></path><path d="M19,8.2c0,0.3 0,0.5 0.1,0.8c0,0.8 -0.1,2 -0.3,2.6c-0.6,1.9 -2.4,7.1 -2.4,7.1c0,0 0.1,0 0.2,-0.1c2.1,-1.4 3.4,-3.8 3.4,-6.6c0,-1.4 -0.4,-2.7 -1,-3.8z"></path><path d="M12,2c-5.5,0 -10,4.5 -10,10c0,5.5 4.5,10 10,10c5.5,0 10,-4.5 10,-10c0,-5.5 -4.5,-10 -10,-10zM12,21c-5,0 -9,-4 -9,-9c0,-5 4,-9 9,-9c5,0 9,4 9,9c0,5 -4,9 -9,9z"></path><path d="M12,2.5c-5.3,0 -9.5,4.2 -9.5,9.5c0,5.3 4.2,9.5 9.5,9.5c5.3,0 9.5,-4.2 9.5,-9.5c0,-5.3 -4.2,-9.5 -9.5,-9.5z" opacity="0.3"></path></g></g></svg>